<svg xmlns="http://www.w3.org/2000/svg" viewBox="0 0 226.72 33.08"><defs><style>.cls-1{fill:#ff440d;}</style></defs><title>logo</title><g id="レイヤー_2" data-name="レイヤー 2"><g id="レイヤー_1-2" data-name="レイヤー 1"><path class="cls-1" d="M19.65.42,18.58,7.56H16.89a12.79,12.79,0,0,0-.59-2.5,5.54,5.54,0,0,0-1.52-2.28,4.24,4.24,0,0,0-3.07-1.06,4,4,0,0,0-2.64.86A2.9,2.9,0,0,0,8,4.92a3.7,3.7,0,0,0,.49,1.86A8.29,8.29,0,0,0,9.84,8.51c.57.57,1.23,1.19,2,1.84a20.88,20.88,0,0,1,3.36,3.49,6.28,6.28,0,0,1,1.14,3.72A6.88,6.88,0,0,1,15.42,21a7.26,7.26,0,0,1-2.71,2.68,8,8,0,0,1-4.1,1,7.88,7.88,0,0,1-4-1.11A10.42,10.42,0,0,1,2.78,22.1a8,8,0,0,0-1.13,2H0l1.12-8.31H2.78a10.09,10.09,0,0,0,.63,3.39,6,6,0,0,0,1.46,2.23A5.71,5.71,0,0,0,8.72,23a3.57,3.57,0,0,0,1.85-.48,3.33,3.33,0,0,0,1.29-1.29,3.53,3.53,0,0,0,.46-1.78A3.71,3.71,0,0,0,12,17.7a6,6,0,0,0-1.08-1.49q-.7-.77-2.49-2.43a17.87,17.87,0,0,1-3.13-3.6,6.07,6.07,0,0,1-.89-3.13,6.54,6.54,0,0,1,1-3.48A7.43,7.43,0,0,1,8.08,1a7.09,7.09,0,0,1,3.59-1,7.38,7.38,0,0,1,5.22,2.27c.07-.11.17-.24.3-.41a6.55,6.55,0,0,0,.39-.55A8.6,8.6,0,0,0,18,.42Z"/><path class="cls-1" d="M38.3,19.83a12.58,12.58,0,0,1-2.08,3.34,4.61,4.61,0,0,1-3.68,1.6,2.39,2.39,0,0,1-2-.78,2.81,2.81,0,0,1-.59-1.79A5.43,5.43,0,0,1,30.08,21c.12-.48.26-1,.44-1.6l.58-2a33.1,33.1,0,0,1-3.88,5.18,6,6,0,0,1-4.44,2.13,2.47,2.47,0,0,1-1.91-.72,2.41,2.41,0,0,1-.67-1.71,8.89,8.89,0,0,1,.49-2.51L22.46,14a5.55,5.55,0,0,0,.36-1.51.87.87,0,0,0-.14-.44.47.47,0,0,0-.44-.21c-.7,0-1.57.82-2.62,2.46H18A18.07,18.07,0,0,1,20.66,11a5,5,0,0,1,3.67-1.44,3.4,3.4,0,0,1,1.84.53,2.22,2.22,0,0,1,.83,2,5,5,0,0,1-.23,1.55l-1.44,4.67a9.16,9.16,0,0,0-.49,2.34,1.3,1.3,0,0,0,.24.74.74.74,0,0,0,.65.35,3.27,3.27,0,0,0,2-1.26,18.29,18.29,0,0,0,2.65-3.92,45,45,0,0,0,2.8-6.67h4.19L34.12,20.58A8.88,8.88,0,0,0,33.8,22a.74.74,0,0,0,.17.43.48.48,0,0,0,.36.22,1.64,1.64,0,0,0,1.25-.88,13.94,13.94,0,0,0,1.07-1.9Z"/><path class="cls-1" d="M59.71,19.65a14.12,14.12,0,0,1-1.36,2,9,9,0,0,1-2.17,2,5,5,0,0,1-2.8.85,3.1,3.1,0,0,1-2.05-.63,2.06,2.06,0,0,1-.76-1.67A7.94,7.94,0,0,1,51,20l1.28-4.23a9.39,9.39,0,0,0,.55-2.38,1.14,1.14,0,0,0-.24-.7.78.78,0,0,0-.66-.31c-.63,0-1.4.53-2.32,1.59a23.09,23.09,0,0,0-2.78,4.33,38.45,38.45,0,0,0-2.46,6H40.2L43.38,14a12.79,12.79,0,0,0,.42-1.8,1,1,0,0,0-.1-.43.42.42,0,0,0-.41-.22,1.68,1.68,0,0,0-1.3.87,9.35,9.35,0,0,0-1.07,1.88H39.45a9.83,9.83,0,0,1,2-3.4A4.63,4.63,0,0,1,45,9.35a2.64,2.64,0,0,1,2,.74,2.29,2.29,0,0,1,.68,1.56A7.35,7.35,0,0,1,47.57,13c-.13.62-.28,1.2-.44,1.74l-.62,1.81a34.22,34.22,0,0,1,4.1-5.3,5.86,5.86,0,0,1,4.25-1.94,2.36,2.36,0,0,1,2,.78,2.72,2.72,0,0,1,.62,1.7A10.45,10.45,0,0,1,57,14l-1.84,6.11a7.41,7.41,0,0,0-.32,1.6A.56.56,0,0,0,55,22a.35.35,0,0,0,.3.16,2.18,2.18,0,0,0,1.26-.7A7.62,7.62,0,0,0,58,19.65Z"/><path class="cls-1" d="M76.13,12.34a1.88,1.88,0,0,1-.48,1.27,1.67,1.67,0,0,1-1.31.54,1.72,1.72,0,0,1-1-.25,1.65,1.65,0,0,1-.56-.68c-.13-.29-.3-.73-.5-1.3a1.94,1.94,0,0,0-.55-.93,2.12,2.12,0,0,0-1.4-.34,2.9,2.9,0,0,0-1.64.48A1.42,1.42,0,0,0,68,12.38a1.85,1.85,0,0,0,.3,1,5,5,0,0,0,.73.89c.28.28.73.68,1.34,1.2a18,18,0,0,1,2.5,2.37,3.64,3.64,0,0,1,.79,2.39,4,4,0,0,1-.67,2.2,4.74,4.74,0,0,1-2.22,1.69,10.35,10.35,0,0,1-4,.65q-3.47,0-4.87-1.28A3.5,3.5,0,0,1,60.5,21a2,2,0,0,1,.55-1.39A1.87,1.87,0,0,1,62.49,19c1.2,0,1.88.76,2.06,2.3a3.2,3.2,0,0,0,.55,1.56,2.16,2.16,0,0,0,1.78.57,3,3,0,0,0,1.94-.6,1.88,1.88,0,0,0,.75-1.53,2,2,0,0,0-.25-1,4.89,4.89,0,0,0-1.06-1.16c-1-.79-1.74-1.5-2.35-2.11a8.24,8.24,0,0,1-1.4-1.75A3.67,3.67,0,0,1,64,13.57a3.7,3.7,0,0,1,.54-1.79,4.53,4.53,0,0,1,2.06-1.7,9.48,9.48,0,0,1,4.09-.73,10.76,10.76,0,0,1,2.68.29,4.74,4.74,0,0,1,1.67.74,2.54,2.54,0,0,1,.82.95A2.44,2.44,0,0,1,76.13,12.34Z"/><path class="cls-1" d="M96.8,19.62a12.16,12.16,0,0,1-2.72,3.48,5.28,5.28,0,0,1-3.55,1.4,3.15,3.15,0,0,1-2.16-.64,2.07,2.07,0,0,1-.71-1.59,3,3,0,0,1,.1-.8c.06-.25.18-.66.36-1.24l1.34-4.46a8.16,8.16,0,0,0,.4-2.13,1.9,1.9,0,0,0-.11-.63,1,1,0,0,0-.36-.47,1,1,0,0,0-.59-.16c-.91,0-1.94.72-3.1,2.18a17.73,17.73,0,0,0-2.5,4q-1.49,3.62-1.71,4.46l-.31,1.2H77L83,4.57a5.78,5.78,0,0,0,.41-1.51.81.81,0,0,0-.5-.82A4.08,4.08,0,0,0,81.49,2H81L81.49.42A33.11,33.11,0,0,0,87.4,0h1.19L84,14.94c.81-1.11,1.52-2,2.11-2.72a9.74,9.74,0,0,1,2.35-2,5.91,5.91,0,0,1,3.21-.91,3.45,3.45,0,0,1,2.12.64,2,2,0,0,1,.83,1.63A11.4,11.4,0,0,1,94,14.5l-1.76,5.8a5.1,5.1,0,0,0-.3,1.29A.94.94,0,0,0,92,22a.35.35,0,0,0,.34.2c.71,0,1.58-.85,2.62-2.55Z"/><path class="cls-1" d="M107.75,20a12,12,0,0,1-2.14,3.13,4.76,4.76,0,0,1-3.66,1.6A3,3,0,0,1,99.74,24,2.38,2.38,0,0,1,99,22.31a9.12,9.12,0,0,1,.65-2.83l2.27-6.21a4,4,0,0,0,.33-1.14.55.55,0,0,0-.51-.51c-.4,0-.83.31-1.31.93a9.75,9.75,0,0,0-1.06,1.67H97.82a9,9,0,0,1,2.7-3.59,5.45,5.45,0,0,1,3.31-1.28,3.14,3.14,0,0,1,1.93.57,1.8,1.8,0,0,1,.76,1.52,5.78,5.78,0,0,1-.38,2l-2.75,7.37a3.88,3.88,0,0,0-.28,1.23.64.64,0,0,0,.17.41.46.46,0,0,0,.36.21,1.58,1.58,0,0,0,1.09-.57A10,10,0,0,0,106.14,20Zm1.3-17.77a2.2,2.2,0,0,1-.67,1.62,2.18,2.18,0,0,1-1.59.68,2.22,2.22,0,0,1-1.65-.68,2.23,2.23,0,0,1-.66-1.62,2.2,2.2,0,0,1,.66-1.59A2.22,2.22,0,0,1,106.79,0a2.18,2.18,0,0,1,1.15.31,2.27,2.27,0,0,1,.82.81A2.16,2.16,0,0,1,109.05,2.27Z"/><path class="cls-1" d="M129.09,19.65a13.33,13.33,0,0,1-1.36,2,9,9,0,0,1-2.17,2,5,5,0,0,1-2.79.85,3.11,3.11,0,0,1-2.06-.63A2.09,2.09,0,0,1,120,22.2a7.94,7.94,0,0,1,.44-2.2l1.29-4.23a9.7,9.7,0,0,0,.54-2.38,1.14,1.14,0,0,0-.24-.7.76.76,0,0,0-.66-.31c-.63,0-1.4.53-2.32,1.59a23.09,23.09,0,0,0-2.78,4.33,37.48,37.48,0,0,0-2.45,6h-4.19L112.76,14a13.66,13.66,0,0,0,.43-1.8,1,1,0,0,0-.11-.43.41.41,0,0,0-.4-.22,1.68,1.68,0,0,0-1.31.87,9.86,9.86,0,0,0-1.07,1.88h-1.47a9.83,9.83,0,0,1,2-3.4,4.63,4.63,0,0,1,3.54-1.51,2.64,2.64,0,0,1,2,.74,2.24,2.24,0,0,1,.68,1.56A7.35,7.35,0,0,1,117,13c-.13.62-.28,1.2-.44,1.74l-.62,1.81a34.85,34.85,0,0,1,4.1-5.3,5.87,5.87,0,0,1,4.25-1.94,2.36,2.36,0,0,1,2,.78,2.72,2.72,0,0,1,.62,1.7A9.78,9.78,0,0,1,126.4,14l-1.84,6.11a7.41,7.41,0,0,0-.32,1.6.56.56,0,0,0,.12.34.37.37,0,0,0,.3.16,2.18,2.18,0,0,0,1.26-.7,7.62,7.62,0,0,0,1.42-1.82Z"/><path class="cls-1" d="M145.92,12.27a4.07,4.07,0,0,1-.44,1.66,6.77,6.77,0,0,1-1.61,2,10.45,10.45,0,0,1-3.34,1.86,21.45,21.45,0,0,1-5.46,1.11l-.42,0a6.2,6.2,0,0,0-.14,1.3,2.45,2.45,0,0,0,.62,1.87,2.57,2.57,0,0,0,1.82.58q2.64,0,5.05-2.85h1.86a13.4,13.4,0,0,1-3.31,3.3,8.57,8.57,0,0,1-5.25,1.64,5.79,5.79,0,0,1-3.61-1.14,3.88,3.88,0,0,1-1.51-3.33,10.19,10.19,0,0,1,1.5-5.23,11.77,11.77,0,0,1,4.08-4.13,10.5,10.5,0,0,1,5.62-1.59,5.71,5.71,0,0,1,3.49.83A2.55,2.55,0,0,1,145.92,12.27Zm-3.71-.07a1.61,1.61,0,0,0-.41-1.06,1.35,1.35,0,0,0-1.1-.49,3.5,3.5,0,0,0-2.26.85,7.63,7.63,0,0,0-1.73,2,14.22,14.22,0,0,0-1.16,2.35L135,17.35a12,12,0,0,0,5.39-2A4,4,0,0,0,142.21,12.2Z"/><path class="cls-1" d="M179.07,5.61a4.73,4.73,0,0,1-.85,2.69,7,7,0,0,1-2.51,2.17,12,12,0,0,1-3.94,1.25q4.78,1.53,4.78,5.63a5.51,5.51,0,0,1-1.1,3.39,8.46,8.46,0,0,1-2.64,2.36,8.2,8.2,0,0,1-2.18.79,15.61,15.61,0,0,1-2.21.31c-.68,0-1.44.06-2.27.06H155.71l.51-1.62A2.14,2.14,0,0,0,158,22a5.92,5.92,0,0,0,.95-2l4.57-14.91a5,5,0,0,0,.29-1.35c0-1.11-.69-1.67-2.06-1.67l.47-1.62h9.58a17.3,17.3,0,0,1,2.6.17,6,6,0,0,1,2.08.76,5.72,5.72,0,0,1,1.89,1.77A4.36,4.36,0,0,1,179.07,5.61Zm-7.4,9.86c0-1.24-.3-2-.89-2.36a4.8,4.8,0,0,0-2.29-.49H166l-2.09,6.79a4.76,4.76,0,0,0-.29,1.51,1.49,1.49,0,0,0,.6,1.1,3.27,3.27,0,0,0,2.09.52,5.36,5.36,0,0,0,2.27-.51,4.55,4.55,0,0,0,2-2.31,10.27,10.27,0,0,0,.76-2A8.22,8.22,0,0,0,171.67,15.47Zm2.72-10.93c0-1-.31-1.7-.95-2a7.51,7.51,0,0,0-2.83-.41h-1.4l-2.69,8.74h1.61a7.21,7.21,0,0,0,2.57-.42,5.1,5.1,0,0,0,1.64-.92,6,6,0,0,0,1.45-2.34A7.67,7.67,0,0,0,174.39,4.54Z"/><path class="cls-1" d="M190.2,0,184,20.16a9.52,9.52,0,0,0-.47,1.87.77.77,0,0,0,.14.47.45.45,0,0,0,.37.18c.3,0,.72-.28,1.26-.83A6.56,6.56,0,0,0,186.63,20h1.65a15.63,15.63,0,0,1-2.3,3.22,4.7,4.7,0,0,1-3.61,1.58,3.07,3.07,0,0,1-2.12-.73,2.32,2.32,0,0,1-.79-1.77,10.9,10.9,0,0,1,.54-2.65L184.5,5A8.65,8.65,0,0,0,184.94,3a.78.78,0,0,0-.5-.81A6,6,0,0,0,182.57,2L183,.42h1.88c.81,0,1.55,0,2.21-.09A10.69,10.69,0,0,0,189,0Z"/><path class="cls-1" d="M207.11,15.54a9,9,0,0,1-.7,3.43,9.16,9.16,0,0,1-2,3A9.85,9.85,0,0,1,201.32,24a9.73,9.73,0,0,1-3.86.75,7.92,7.92,0,0,1-3.63-.8,5.92,5.92,0,0,1-2.42-2.25,6.3,6.3,0,0,1-.86-3.3,8.31,8.31,0,0,1,1.3-4.46,9.45,9.45,0,0,1,3.54-3.36,9.81,9.81,0,0,1,4.84-1.25,7.78,7.78,0,0,1,3.73.85,5.74,5.74,0,0,1,2.35,2.28A6.19,6.19,0,0,1,207.11,15.54Zm-4.17-1.21a4.24,4.24,0,0,0-.69-2.57,2.41,2.41,0,0,0-2.05-.93,3.36,3.36,0,0,0-2.36,1,8.06,8.06,0,0,0-1.72,2.47,15.86,15.86,0,0,0-1,3,11.9,11.9,0,0,0-.35,2.59,4.12,4.12,0,0,0,.69,2.47,2.23,2.23,0,0,0,1.93,1,3.53,3.53,0,0,0,2.46-1,7.54,7.54,0,0,0,1.77-2.45,14.88,14.88,0,0,0,1-3A12.52,12.52,0,0,0,202.94,14.33Z"/><path class="cls-1" d="M226.72,10.72a.9.9,0,0,1-.38.84,1.32,1.32,0,0,1-.72.23,1.61,1.61,0,0,1-.92-.31.9.9,0,0,0-.53-.21.74.74,0,0,0-.68.49,5.72,5.72,0,0,1,.55,1.11,3.89,3.89,0,0,1,.2,1.39,5.21,5.21,0,0,1-.31,1.66,5.12,5.12,0,0,1-1.14,1.8,6.26,6.26,0,0,1-2.37,1.48,11,11,0,0,1-3.86.59,7.3,7.3,0,0,0-2.94.39,1.21,1.21,0,0,0-.75,1.12.77.77,0,0,0,.26.58,2.78,2.78,0,0,0,.8.43q.54.2,1.92.57c.92.25,1.82.5,2.7.76q4.74,1.35,4.74,4.4a3.81,3.81,0,0,1-.89,2.44,6.49,6.49,0,0,1-3,1.86,17,17,0,0,1-5.55.74,22.21,22.21,0,0,1-3.2-.27,9.1,9.1,0,0,1-3.35-1.17,2.86,2.86,0,0,1-1.52-2.6,3.08,3.08,0,0,1,1.34-2.55,2,2,0,0,1,1.1-.37,1.23,1.23,0,0,1,.57.12.39.39,0,0,1,.22.36,1.3,1.3,0,0,1-.35.68,2.42,2.42,0,0,0-.61,1.41A2.3,2.3,0,0,0,210,31a13.73,13.73,0,0,0,3.92.58,9.72,9.72,0,0,0,3.93-.67c1-.45,1.47-1,1.47-1.76a1.2,1.2,0,0,0-.3-.86,3.19,3.19,0,0,0-1.13-.64c-.56-.22-1.58-.57-3.07-1.05a26.37,26.37,0,0,1-3.1-1.14A4.39,4.39,0,0,1,210,24.21a2.6,2.6,0,0,1-.57-1.71,2.88,2.88,0,0,1,1.26-2.41,6.57,6.57,0,0,1,3-1.19,4,4,0,0,1-2-1.64A4.18,4.18,0,0,1,211,15a4.8,4.8,0,0,1,.89-2.73,6.44,6.44,0,0,1,2.49-2.12A7.89,7.89,0,0,1,218,9.35a6.36,6.36,0,0,1,4.5,1.41,8.17,8.17,0,0,1,1.23-1,2.61,2.61,0,0,1,1.48-.39,1.62,1.62,0,0,1,1.1.36A1.29,1.29,0,0,1,226.72,10.72Zm-6.29,2.09a2.58,2.58,0,0,0-.23-1.08,1.85,1.85,0,0,0-.69-.78,1.94,1.94,0,0,0-1.07-.3,2.47,2.47,0,0,0-1.91,1,6.6,6.6,0,0,0-1.26,2.29,7.56,7.56,0,0,0-.43,2.32,2.13,2.13,0,0,0,.52,1.59,1.9,1.9,0,0,0,1.4.51,3,3,0,0,0,2.72-1.92A8.17,8.17,0,0,0,220.43,12.81Z"/></g></g></svg>